HIERARCHY
ROOT reference
{
  OFFSET 0 0 0
  CHANNELS 6 Xposition Yposition Zposition Zrotation Xrotation Yrotation
  JOINT Hips
  {
    OFFSET 349.773 89.4622 219.413
    CHANNELS 3 Zrotation Xrotation Yrotation
    JOINT RightUpLeg
    {
      OFFSET -9.25229 -1.56476 -0.00486621
      CHANNELS 3 Zrotation Xrotation Yrotation
      JOINT RightLeg
      {
        OFFSET 0.0546168 -41.8841 0.068862
        CHANNELS 3 Zrotation Xrotation Yrotation
        JOINT RightFoot
        {
          OFFSET -1.63893 -40.8901 3.53979
          CHANNELS 3 Zrotation Xrotation Yrotation
          End Site
          {
            OFFSET 0 -7.69 17.5
          }
        }
      }
    }
    JOINT LeftUpLeg
    {
      OFFSET 9.30241 -1.63853 -0.0284428
      CHANNELS 3 Zrotation Xrotation Yrotation
      JOINT LeftLeg
      {
        OFFSET 0.0539686 -41.842 -0.0517406
        CHANNELS 3 Zrotation Xrotation Yrotation
        JOINT LeftFoot
        {
          OFFSET 1.12518 -42.5382 -2.5849
          CHANNELS 3 Zrotation Xrotation Yrotation
          End Site
          {
            OFFSET 0 -7.69 17.5
          }
        }
      }
    }
    JOINT Spine
    {
      OFFSET 0.0144198 14.3187 0.0981135
      CHANNELS 3 Zrotation Xrotation Yrotation
      JOINT Spine1
      {
        OFFSET 0.0112165 9.7169 0.0514987
        CHANNELS 3 Zrotation Xrotation Yrotation
        JOINT Spine2
        {
          OFFSET 0.0255827 10.1205 -0.00638435
          CHANNELS 3 Zrotation Xrotation Yrotation
          JOINT Spine3
          {
            OFFSET -0.00190646 9.72552 0.024249
            CHANNELS 3 Zrotation Xrotation Yrotation
            JOINT Neck
            {
              OFFSET -0.136438 10.3681 0.0553958
              CHANNELS 3 Zrotation Xrotation Yrotation
              JOINT Head
              {
                OFFSET 0.0264476 9.5071 0.170402
                CHANNELS 3 Zrotation Xrotation Yrotation
                End Site
                {
                  OFFSET 0 15.95 0
                }
              }
            }
            JOINT RightShoulder
            {
              OFFSET -3.1747 6.92483 0.00547946
              CHANNELS 3 Zrotation Xrotation Yrotation
              JOINT RightArm
              {
                OFFSET -12.7755 -0.0136287 0.0362428
                CHANNELS 3 Zrotation Xrotation Yrotation
                JOINT RightForeArm
                {
                  OFFSET -26.5642 -0.108975 -0.0233747
                  CHANNELS 3 Zrotation Xrotation Yrotation
                  JOINT RightHand
                  {
                    OFFSET -25.905 -0.185223 0.00356295
                    CHANNELS 3 Zrotation Xrotation Yrotation
                    JOINT RightHandThumb1
                    {
                      OFFSET -2.48905 0.190105 3.12053
                      CHANNELS 3 Zrotation Xrotation Yrotation
                      JOINT RightHandThumb2
                      {
                        OFFSET -3.68274 0 0
                        CHANNELS 3 Zrotation Xrotation Yrotation
                        JOINT RightHandThumb3
                        {
                          OFFSET -2.55832 0 0
                          CHANNELS 3 Zrotation Xrotation Yrotation
                          End Site
                          {
                            OFFSET -2.194 0 0
                          }
                        }
                      }
                    }
                    JOINT RightInHandIndex
                    {
                      OFFSET -3.22368 0.508421 1.97842
                      CHANNELS 3 Zrotation Xrotation Yrotation
                      JOINT RightHandIndex1
                      {
                        OFFSET -5.21684 -0.091368 0.999158
                        CHANNELS 3 Zrotation Xrotation Yrotation
                        JOINT RightHandIndex2
                        {
                          OFFSET -3.61937 0 0
                          CHANNELS 3 Zrotation Xrotation Yrotation
                          JOINT RightHandIndex3
                          {
                            OFFSET -2.0521 0 0
                            CHANNELS 3 Zrotation Xrotation Yrotation
                            End Site
                            {
                              OFFSET -1.805 0 0
                            }
                          }
                        }
                      }
                    }
                    JOINT RightInHandMiddle
                    {
                      OFFSET -3.38211 0.517263 0.756737
                      CHANNELS 3 Zrotation Xrotation Yrotation
                      JOINT RightHandMiddle1
                      {
                        OFFSET -5.17411 -0.084 0.313895
                        CHANNELS 3 Zrotation Xrotation Yrotation
                        JOINT RightHandMiddle2
                        {
                          OFFSET -3.94947 0 0
                          CHANNELS 3 Zrotation Xrotation Yrotation
                          JOINT RightHandMiddle3
                          {
                            OFFSET -2.47579 0 0
                            CHANNELS 3 Zrotation Xrotation Yrotation
                            End Site
                            {
                              OFFSET -1.975 0 0
                            }
                          }
                        }
                      }
                    }
                    JOINT RightInHandRing
                    {
                      OFFSET -3.36516 0.537895 -0.128947
                      CHANNELS 3 Zrotation Xrotation Yrotation
                      JOINT RightHandRing1
                      {
                        OFFSET -4.63474 -0.022105 -0.478947
                        CHANNELS 3 Zrotation Xrotation Yrotation
                        JOINT RightHandRing2
                        {
                          OFFSET -3.44238 0 0
                          CHANNELS 3 Zrotation Xrotation Yrotation
                          JOINT RightHandRing3
                          {
                            OFFSET -2.3881 0 0
                            CHANNELS 3 Zrotation Xrotation Yrotation
                            End Site
                            {
                              OFFSET -1.857 0 0
                            }
                          }
                        }
                      }
                    }
                    JOINT RightInHandPinky
                    {
                      OFFSET -3.16105 0.469368 -1.20179
                      CHANNELS 3 Zrotation Xrotation Yrotation
                      JOINT RightHandPinky1
                      {
                        OFFSET -4.14105 -0.022105 -1.09053
                        CHANNELS 3 Zrotation Xrotation Yrotation
                        JOINT RightHandPinky2
                        {
                          OFFSET -2.75653 0 0
                          CHANNELS 3 Zrotation Xrotation Yrotation
                          JOINT RightHandPinky3
                          {
                            OFFSET -1.74189 0 0
                            CHANNELS 3 Zrotation Xrotation Yrotation
                            End Site
                            {
                              OFFSET -1.645 0 0
                            }
                          }
                        }
                      }
                    }
                  }
                }
              }
            }
            JOINT LeftShoulder
            {
              OFFSET 3.23079 6.93624 -0.032633
              CHANNELS 3 Zrotation Xrotation Yrotation
              JOINT LeftArm
              {
                OFFSET 12.8235 -0.00564763 -0.0637926
                CHANNELS 3 Zrotation Xrotation Yrotation
                JOINT LeftForeArm
                {
                  OFFSET 26.4641 -0.00020372 -0.0407631
                  CHANNELS 3 Zrotation Xrotation Yrotation
                  JOINT LeftHand
                  {
                    OFFSET 25.9912 -0.0207868 -0.0178714
                    CHANNELS 3 Zrotation Xrotation Yrotation
                    JOINT LeftHandThumb1
                    {
                      OFFSET 2.48905 0.190105 3.12053
                      CHANNELS 3 Zrotation Xrotation Yrotation
                      JOINT LeftHandThumb2
                      {
                        OFFSET 3.68274 0 0
                        CHANNELS 3 Zrotation Xrotation Yrotation
                        JOINT LeftHandThumb3
                        {
                          OFFSET 2.55832 0 0
                          CHANNELS 3 Zrotation Xrotation Yrotation
                          End Site
                          {
                            OFFSET 2.194 0 0
                          }
                        }
                      }
                    }
                    JOINT LeftInHandIndex
                    {
                      OFFSET 3.22368 0.508421 1.97842
                      CHANNELS 3 Zrotation Xrotation Yrotation
                      JOINT LeftHandIndex1
                      {
                        OFFSET 5.21684 -0.091368 0.999158
                        CHANNELS 3 Zrotation Xrotation Yrotation
                        JOINT LeftHandIndex2
                        {
                          OFFSET 3.61937 0 0
                          CHANNELS 3 Zrotation Xrotation Yrotation
                          JOINT LeftHandIndex3
                          {
                            OFFSET 2.0521 0 0
                            CHANNELS 3 Zrotation Xrotation Yrotation
                            End Site
                            {
                              OFFSET 1.805 0 0
                            }
                          }
                        }
                      }
                    }
                    JOINT LeftInHandMiddle
                    {
                      OFFSET 3.38211 0.517263 0.756737
                      CHANNELS 3 Zrotation Xrotation Yrotation
                      JOINT LeftHandMiddle1
                      {
                        OFFSET 5.17411 -0.084 0.313895
                        CHANNELS 3 Zrotation Xrotation Yrotation
                        JOINT LeftHandMiddle2
                        {
                          OFFSET 3.94947 0 0
                          CHANNELS 3 Zrotation Xrotation Yrotation
                          JOINT LeftHandMiddle3
                          {
                            OFFSET 2.47579 0 0
                            CHANNELS 3 Zrotation Xrotation Yrotation
                            End Site
                            {
                              OFFSET 1.975 0 0
                            }
                          }
                        }
                      }
                    }
                    JOINT LeftInHandRing
                    {
                      OFFSET 3.36516 0.537895 -0.128947
                      CHANNELS 3 Zrotation Xrotation Yrotation
                      JOINT LeftHandRing1
                      {
                        OFFSET 4.63474 -0.022105 -0.478947
                        CHANNELS 3 Zrotation Xrotation Yrotation
                        JOINT LeftHandRing2
                        {
                          OFFSET 3.44238 0 0
                          CHANNELS 3 Zrotation Xrotation Yrotation
                          JOINT LeftHandRing3
                          {
                            OFFSET 2.3881 0 0
                            CHANNELS 3 Zrotation Xrotation Yrotation
                            End Site
                            {
                              OFFSET 1.857 0 0
                            }
                          }
                        }
                      }
                    }
                    JOINT LeftInHandPinky
                    {
                      OFFSET 3.16105 0.469368 -1.20179
                      CHANNELS 3 Zrotation Xrotation Yrotation
                      JOINT LeftHandPinky1
                      {
                        OFFSET 4.14105 -0.022105 -1.09053
                        CHANNELS 3 Zrotation Xrotation Yrotation
                        JOINT LeftHandPinky2
                        {
                          OFFSET 2.75653 0 0
                          CHANNELS 3 Zrotation Xrotation Yrotation
                          JOINT LeftHandPinky3
                          {
                            OFFSET 1.74189 0 0
                            CHANNELS 3 Zrotation Xrotation Yrotation
                            End Site
                            {
                              OFFSET 1.645 0 0
                            }
                          }
                        }
                      }
                    }
                  }
                }
              }
            }
          }
        }
      }
    }
  }
}
MOTION
Frames: 2
Frame Time: 0.00833333
4.500000000000000000e+02 0.000000000000000000e+00 0.000000000000000000e+00 0.000000000000000000e+00 0.000000000000000000e+00 0.000000000000000000e+00 -6.705640103981191924e-02 -1.896494185683795519e-01 -1.069529441553300070e-01 -7.897248015948976629e-02 3.936602469111845359e-02 1.757743666587663067e-01 9.566248013173518985e-03 4.166451451768513926e-03 2.029619539321674861e-03 -6.263304133752549754e-03 -2.971470213815986111e-03 -2.194207078620040441e-02 -1.745317779951670312e-01 4.404765292036555424e-02 9.194908200365108086e-02 1.532113389206913624e-02 3.017309058758501153e-02 3.482111630475016179e-02 -2.903616199327268069e-02 -1.600955127759704291e-02 -2.838681032901552159e-02 -1.155811807458866358e-01 -6.998141809058162910e-02 5.115030719013787322e-03 -2.605738985901954324e-02 1.803218864639317617e-02 -6.448540897259850621e-03 -4.397287248864057557e-02 -2.825250173336076726e-02 1.327400631027793451e-03 -9.882971297680103167e-04 1.940972403433860764e-03 3.893265635739698869e-04 4.849975728040543943e-03 -7.022624372138203813e-03 -9.146788388058517058e-03 -4.025018678256939153e-02 4.049533277350168131e-02 5.222056791724413727e-02 -2.304887535566349857e-02 4.531981812982384394e-02 5.702730076313028418e-02 6.337115167923722259e-02 5.455984250903724714e-02 1.158701218454491755e-01 2.419198872283241739e-03 3.879642712251849673e-02 -2.396294458019058993e-02 -9.993372453963134117e-02 2.652178211350588732e-01 1.478398679910449265e-01 0.000000000000000000e+00 0.000000000000000000e+00 0.000000000000000000e+00 1.738813893573761805e-15 -1.279791350947794081e-15 0.000000000000000000e+00 -3.942703114430779844e-16 -2.220230944564556488e-16 0.000000000000000000e+00 1.451526628075665090e-15 -7.247643078409180787e-17 7.208671829406607896e-16 0.000000000000000000e+00 0.000000000000000000e+00 0.000000000000000000e+00 0.000000000000000000e+00 1.009812887421135413e-16 2.502693628948437551e-15 0.000000000000000000e+00 -2.556023488168237990e-15 -3.712186582587145269e-16 1.451526628075665090e-15 -7.247643078409180787e-17 7.208671829406607896e-16 0.000000000000000000e+00 -3.023968088991325427e-15 2.903403424349468694e-16 0.000000000000000000e+00 2.812534554508063911e-15 -5.913581487271371809e-16 0.000000000000000000e+00 1.034087844450942148e-17 2.919254060817139512e-15 1.451526628075665090e-15 -7.247643078409180787e-17 7.208671829406607896e-16 0.000000000000000000e+00 0.000000000000000000e+00 0.000000000000000000e+00 0.000000000000000000e+00 -2.846474990188163218e-15 7.253752714514333926e-16 0.000000000000000000e+00 1.398459943932400280e-15 1.474703876343856968e-16 1.451526628075665090e-15 -7.247643078409180787e-17 7.208671829406607896e-16 0.000000000000000000e+00 0.000000000000000000e+00 0.000000000000000000e+00 0.000000000000000000e+00 1.878187029637088878e-15 3.518784480320809554e-15 0.000000000000000000e+00 3.650268317027711300e-15 -1.916022131612986588e-15 7.330350236511108675e-02 4.609636233320608956e-02 1.237903765458382016e-01 1.038872769887203007e-01 -1.450706474320486439e-01 -1.434094343493108881e-01 -4.107814698570638051e-02 -1.208685048205856982e-01 2.248729077497869100e-01 -6.458683182676047685e-02 1.281851992226928361e-01 -1.491337070140049126e-01 0.000000000000000000e+00 0.000000000000000000e+00 0.000000000000000000e+00 1.099931520208866337e-15 6.152277932115055927e-17 0.000000000000000000e+00 1.188938460806133241e-15 3.361099846804530123e-16 0.000000000000000000e+00 -1.061547273482116209e-15 8.284529230928053520e-16 -1.170543798126864760e-15 0.000000000000000000e+00 0.000000000000000000e+00 0.000000000000000000e+00 0.000000000000000000e+00 2.374239423635147380e-15 -1.445009702553197171e-16 0.000000000000000000e+00 1.023603896788841693e-15 4.733228807126064960e-16 -1.061547273482116209e-15 8.284529230928053520e-16 -1.170543798126864760e-15 0.000000000000000000e+00 1.811799430694666259e-15 -8.581037761072130118e-17 0.000000000000000000e+00 -5.096858176973381592e-16 -3.835586028134064206e-16 0.000000000000000000e+00 1.456938952457403243e-15 -2.317400423400875674e-15 -1.061547273482116209e-15 8.284529230928053520e-16 -1.170543798126864760e-15 0.000000000000000000e+00 0.000000000000000000e+00 0.000000000000000000e+00 0.000000000000000000e+00 -1.380245157031402402e-15 1.363618510910049199e-15 0.000000000000000000e+00 -2.326845707065646991e-16 -4.116517992712773979e-15 -1.061547273482116209e-15 8.284529230928053520e-16 -1.170543798126864760e-15 0.000000000000000000e+00 0.000000000000000000e+00 0.000000000000000000e+00 0.000000000000000000e+00 6.135594817563004441e-16 -1.933556797228606202e-15 0.000000000000000000e+00 -2.865529120851697229e-15 -1.061613068475643395e-15
4.500000000000000000e+02 0.000000000000000000e+00 0.000000000000000000e+00 0.000000000000000000e+00 0.000000000000000000e+00 0.000000000000000000e+00 -6.156206793203421873e-02 -1.560738229938418153e-01 -9.033317295900400445e-02 -7.265920326721728162e-02 3.398567667541634724e-02 1.704461967922295818e-01 1.872584729959116470e-02 8.806995248172969776e-03 -1.093056792761541718e-02 -1.345638698717815766e-02 5.917498610360326719e-03 -2.892371124957542755e-02 -1.282954818889364412e-01 5.389983667675875972e-02 9.278572987317473819e-02 -1.360956761823501606e-03 2.277667885908615797e-02 5.319983362690515992e-03 -1.349522771527778865e-02 -1.145674544315986032e-02 -1.177711489118168052e-02 -8.511412739988356846e-02 -3.242665010311351209e-02 3.309278336483955502e-02 -1.902966105759502577e-02 2.045980174729900014e-02 1.514219267726863490e-03 -3.296645544545405426e-02 -2.334644745451628159e-02 1.400502217390905448e-02 -2.165142503839923450e-03 -1.975524746856310615e-04 -1.710797064002872458e-03 -2.474769027085992664e-03 -1.942485385208636561e-02 -5.488751043962991627e-02 -4.810566911989650613e-02 3.342452894693260373e-02 5.174286121031160084e-03 -1.628877825174576341e-02 1.993722161107805771e-02 2.321570132306934389e-02 -9.797903722966726583e-03 -5.647319041749669644e-02 2.000285630979880061e-02 1.002863553198209134e-01 1.138025432112005630e-01 -5.980963600210106867e-02 -4.032347458537990925e-02 2.681389378213383523e-01 1.502427609853262125e-01 0.000000000000000000e+00 0.000000000000000000e+00 0.000000000000000000e+00 2.872506097700191620e-16 -1.753234255023797090e-15 0.000000000000000000e+00 2.366566083867348317e-16 -8.489308644696924112e-16 0.000000000000000000e+00 1.097260601222283861e-15 -7.585814332295326792e-16 1.054897283188194897e-16 0.000000000000000000e+00 0.000000000000000000e+00 0.000000000000000000e+00 0.000000000000000000e+00 1.470184278797814810e-15 1.128818163290235303e-15 0.000000000000000000e+00 -1.401095518154969365e-15 -1.850721825941554688e-15 1.097260601222283861e-15 -7.585814332295326792e-16 1.054897283188194897e-16 0.000000000000000000e+00 -2.003181814223157796e-15 8.924378814431661504e-16 0.000000000000000000e+00 2.254783921150372993e-15 -1.510822782529241552e-15 0.000000000000000000e+00 -2.523939668260251196e-16 2.060524744484750901e-15 1.097260601222283861e-15 -7.585814332295326792e-16 1.054897283188194897e-16 0.000000000000000000e+00 0.000000000000000000e+00 0.000000000000000000e+00 0.000000000000000000e+00 -3.489760005422714794e-15 1.348992892958310957e-15 0.000000000000000000e+00 2.190685555397682648e-15 -1.025202255407561597e-15 1.097260601222283861e-15 -7.585814332295326792e-16 1.054897283188194897e-16 0.000000000000000000e+00 0.000000000000000000e+00 0.000000000000000000e+00 0.000000000000000000e+00 4.556525375191811482e-15 1.569741266857040410e-15 0.000000000000000000e+00 2.960793376767478278e-15 -1.336440244559752540e-15 3.411075407913177759e-02 2.018484403377506994e-02 7.497341344243492467e-02 9.951053858118370787e-02 -1.474635464816410613e-01 -1.412520526479767724e-01 -5.126531333454218547e-02 -6.717649902398563355e-02 1.624299060106325632e-01 -4.845644720446402182e-02 1.465360459018665573e-01 -1.874798675598376430e-01 0.000000000000000000e+00 0.000000000000000000e+00 0.000000000000000000e+00 1.007875323306667049e-15 -3.613506245752640560e-17 0.000000000000000000e+00 7.951353321788797631e-16 -9.828222873882467617e-18 0.000000000000000000e+00 -1.786201185168536482e-15 3.500591031466441998e-16 -2.233204926096531628e-15 0.000000000000000000e+00 0.000000000000000000e+00 0.000000000000000000e+00 0.000000000000000000e+00 1.892809576816371328e-15 -4.113597680099252458e-16 0.000000000000000000e+00 1.099600690861784424e-15 -1.756724808982598891e-16 -1.786201185168536482e-15 3.500591031466441998e-16 -2.233204926096531628e-15 0.000000000000000000e+00 2.398110547415507211e-15 -2.473570876367010278e-15 0.000000000000000000e+00 -1.549355996960520634e-15 -1.818949678983905110e-16 0.000000000000000000e+00 1.345968452099662695e-15 -1.470890796272447411e-15 -1.786201185168536482e-15 3.500591031466441998e-16 -2.233204926096531628e-15 0.000000000000000000e+00 0.000000000000000000e+00 0.000000000000000000e+00 0.000000000000000000e+00 -1.835081461685827275e-15 1.202166715970912961e-16 0.000000000000000000e+00 -5.281655717483131493e-16 -3.816194813580691826e-15 -1.786201185168536482e-15 3.500591031466441998e-16 -2.233204926096531628e-15 0.000000000000000000e+00 0.000000000000000000e+00 0.000000000000000000e+00 0.000000000000000000e+00 2.222323392438316569e-15 -1.366807801882840408e-15 0.000000000000000000e+00 -2.267295534707494713e-15 -1.206502006316156454e-15
